<svg width="55" height="55" viewBox="0 0 55 55" fill="none" xmlns="http://www.w3.org/2000/svg">
<path d="M27.2843 0C12.2414 0 0 12.2385 0 27.2843C0 42.3302 12.2385 54.5687 27.2843 54.5687C42.3301 54.5687 54.5687 42.3302 54.5687 27.2843C54.5687 12.2385 42.3301 0 27.2843 0ZM43.3454 13.1055C43.1854 13.7629 42.592 14.2487 41.888 14.2487H29.8705C29.5098 14.2487 29.2102 14.5018 29.1374 14.8393C29.1374 14.8393 27.0342 24.3462 27.0342 24.3753C27.0342 24.5818 27.2029 24.7505 27.4094 24.7505H38.784C38.9905 24.7505 39.1592 24.9192 39.1592 25.1258C39.1592 25.152 38.8392 26.6065 38.8392 26.6065C38.6792 27.264 38.0858 27.7498 37.3818 27.7498H26.8829C26.5222 27.7498 26.2225 28.0029 26.1498 28.3403C26.1498 28.3403 23.3832 40.8465 23.3832 40.8756C23.3832 41.0821 23.552 41.2509 23.7585 41.2509H36.6487C36.8552 41.2509 37.024 41.4196 37.024 41.6261C37.024 41.6523 36.704 43.1069 36.704 43.1069C36.544 43.7643 35.9505 44.2501 35.2465 44.2501H15.9273C13.4429 44.2501 11.4269 42.2341 11.4269 39.7498C11.4269 39.4152 11.4647 39.0865 11.5345 38.7723L18.4611 14.5833C18.4843 14.4756 18.4989 14.3651 18.4989 14.2516C18.4989 12.4567 16.4887 12.3578 16.4887 11.6276C16.4887 11.4211 16.6574 11.2524 16.864 11.2524H43.296H43.2901C43.4967 11.2524 43.6654 11.4182 43.6654 11.6247C43.6654 11.6509 43.3454 13.1055 43.3454 13.1055Z" fill="white"/>
</svg>
